<?xml version="1.0" encoding="UTF-8"?>
<svg id="_레이어_2" data-name="레이어 2" xmlns="http://www.w3.org/2000/svg" viewBox="0 0 132.5 23.76">
  <defs>
    <linearGradient id="amplifyGradient" x1="0%" y1="0%" x2="100%" y2="0%">
      <stop offset="0%" style="stop-color:#4C4F7A;stop-opacity:1" />
      <stop offset="100%" style="stop-color:#7062A6;stop-opacity:1" />
    </linearGradient>
  </defs>
  <g id="_레이어_1-2" data-name="레이어 1">
    <g fill="url(#amplifyGradient)">
      <path d="M9.79,0h6.82l9.79,23.76h-7.43l-1.51-4.12h-8.48l-1.53,4.12H0L9.79,0ZM11.32,13.59h3.8l-1.87-5.24h-.05l-1.87,5.24Z"/>
      <path d="M53.08,0v23.76h-6.97v-11.81l.29-4.9-1.1,5.71-2.79,8.69h-6.82l-2.77-8.69-1.1-5.71.29,4.9v11.81h-6.97V0h9.97l3.6,13.91.4,2.36.4-2.36,3.6-13.91h9.97Z"/>
      <path d="M54.07,0h9.95c1.55,0,2.95.29,4.19.85s2.24,1.41,2.98,2.53c.74,1.12,1.11,2.48,1.11,4.1s-.37,3.02-1.11,4.19c-.74,1.17-1.73,2.07-2.98,2.7-1.25.63-2.65.95-4.19.95h-2.99v8.44h-6.97V0ZM61.04,9.9h1.04c.53,0,1-.07,1.41-.23.41-.15.74-.39.98-.72.24-.33.36-.76.36-1.29s-.12-.96-.36-1.29-.57-.57-.98-.73c-.41-.16-.89-.23-1.41-.23h-1.04v4.48Z"/>
      <path d="M72.45,0h6.98v17.71h8.12v6.05h-15.1V0Z"/>
      <path d="M88.07,0h6.97v23.76h-6.97V0Z"/>
      <path d="M96.14,0h14.67v6.05h-7.69v2.79h7.06v6.03h-7.06v8.89h-6.98V0Z"/>
      <path d="M117.23,15.21L108.9,0h8.48l3.33,7.29,3.35-7.29h8.44l-8.3,15.21v8.55h-6.97v-8.55Z"/>
    </g>
  </g>
</svg>

